<svg height="500" viewBox="0 0 132.29167 132.29167" width="500" xmlns="http://www.w3.org/2000/svg"><g transform="translate(-48.065051 -9.941317)"><g stroke="#000"><path d="m71.491652 75.375362v47.327828l107.408678-.5668-.14171-48.036327z" fill="#ff6b00" stroke-width=".280552"/><g fill="#fff" stroke-width="1.060354"><path d="m49.691071 28.702424c2.067513 10.563045 3.76978 20.653347.261744 29.243827 0 0 21.189006 17.333263 21.538837 17.429111.349831.09585-.349831-24.544409-.349831-24.544409z" stroke-linecap="round" stroke-linejoin="round"/><path d="m49.669415 57.946251 21.822237 17.429111.000561 23.66391-21.539263-17.570806c3.249349-4.518553 1.572201-14.196924-.283535-23.522215z"/><path d="m49.319584 81.296525 21.822237 17.429117.000561 23.663908-21.539263-17.5708c3.249349-4.51856 1.572201-14.196938-.283535-23.522225z"/></g></g><g stroke-linecap="round" stroke-linejoin="round" stroke-width="3.181061"><path d="m49.691071 28.702424 21.45075 22.128529v24.448561l107.553589-.0022v-23.729638l-22.14546-22.845252z" fill="#ff6b00" stroke="#000012"/><g fill="none" stroke="#000"><path d="m178.76603 101.95258v20.73749l-107.553596.002.141701-20.94087"/><path d="m178.76603 78.129774v20.737498l-107.553596.002.141701-20.940873"/><path d="m71.49208 75.517061-21.539264-17.57081"/><path d="m71.49208 99.039272-21.539264-17.570805"/><path d="m71.212434 122.69219-21.539264-17.57081"/><path d="m71.873999 50.830953h105.055091"/></g></g><g stroke="#000"><path d="m93.128803 26.971382 22.637717 24.411907v73.819631h17.2238v-73.819631l-22.63771-24.411907z" fill="#ff6b00" stroke-linecap="round" stroke-linejoin="round" stroke-width="3.181061"/><path d="m113.24905 69.250107h22.391405v21.77877h-22.391405z" fill="#fff" stroke-linecap="round" stroke-linejoin="round" stroke-width="3.181061"/><path d="m120.93158 74.160992h-2.80316s-.30152 7.699569.0987 9.738804c.53514 2.726566 3.21042 2.371746 6.17091 2.371746s5.44093.40866 5.97762-2.371746c.50959-2.63996 0-9.766462 0-9.766462h-2.73938s.0503 6.381637-.50531 7.519191c-.59072 1.209419-1.515 1.601103-2.82155 1.601103s-2.23486-.483172-2.80994-1.685327c-.57881-1.209936-.56786-7.407314-.56786-7.407314z" fill="#160000" stroke-width=".280552"/></g></g></svg>